# xmcd
#
# Track frame offsets:
#	150
#	13220
#	25190
#	36300
#	48067
#	59420
#
# Disc length: 992 seconds
#
# Revision: 0
# Processed by: cddbd v1.5.1PL0 Copyright (c) Steve Scherf et al.
# Submitted via: dBpowerAMP V4.0
#
DISCID=4703de06
DTITLE=The Slippers - Broken Bones
DYEAR=1999
DGENRE=Neo Rockabilly
TTITLE0=I Dig You Girl
TTITLE1=Who´s To Say
TTITLE2=Grow Up
TTITLE3=Hurricane
TTITLE4=Got Love If You Want It
TTITLE5=Turn Around ´81
EXTD=
EXTT0=
EXTT1=
EXTT2=
EXTT3=
EXTT4=
EXTT5=
PLAYORDER=
